<svg width="1600" height="560" viewBox="0 0 1600 560" fill="none" xmlns="http://www.w3.org/2000/svg" role="img" aria-label="xTract banner">
  <defs>
    <linearGradient id="bg" x1="0" y1="0" x2="1" y2="1">
      <stop offset="0%" stop-color="#070B16"/>
      <stop offset="100%" stop-color="#0E1E45"/>
    </linearGradient>
    <linearGradient id="glow" x1="0" y1="0" x2="1" y2="0">
      <stop offset="0%" stop-color="#3B82F6" stop-opacity="0"/>
      <stop offset="50%" stop-color="#3B82F6" stop-opacity="1"/>
      <stop offset="100%" stop-color="#3B82F6" stop-opacity="0"/>
    </linearGradient>
    <filter id="soft" x="-20%" y="-20%" width="140%" height="140%">
      <feGaussianBlur stdDeviation="20"/>
    </filter>
  </defs>

  <rect width="1600" height="560" rx="28" fill="url(#bg)"/>

  <circle cx="1400" cy="120" r="120" fill="#1D4ED8" opacity="0.25" filter="url(#soft)"/>
  <circle cx="240" cy="470" r="140" fill="#2563EB" opacity="0.2" filter="url(#soft)"/>

  <g opacity="0.35" stroke="#4B5563" stroke-width="1">
    <path d="M0 100H1600"/>
    <path d="M0 180H1600"/>
    <path d="M0 260H1600"/>
    <path d="M0 340H1600"/>
    <path d="M0 420H1600"/>
    <path d="M0 500H1600"/>
  </g>

  <g opacity="0.9">
    <rect x="1020" y="300" width="26" height="90" rx="8" fill="#22C55E"/>
    <path d="M1033 250V440" stroke="#22C55E" stroke-width="4" stroke-linecap="round"/>

    <rect x="1080" y="240" width="26" height="120" rx="8" fill="#22C55E"/>
    <path d="M1093 200V390" stroke="#22C55E" stroke-width="4" stroke-linecap="round"/>

    <rect x="1140" y="260" width="26" height="80" rx="8" fill="#EF4444"/>
    <path d="M1153 220V380" stroke="#EF4444" stroke-width="4" stroke-linecap="round"/>

    <rect x="1200" y="210" width="26" height="120" rx="8" fill="#22C55E"/>
    <path d="M1213 170V360" stroke="#22C55E" stroke-width="4" stroke-linecap="round"/>

    <rect x="1260" y="260" width="26" height="110" rx="8" fill="#EF4444"/>
    <path d="M1273 220V410" stroke="#EF4444" stroke-width="4" stroke-linecap="round"/>

    <rect x="1320" y="200" width="26" height="140" rx="8" fill="#22C55E"/>
    <path d="M1333 160V380" stroke="#22C55E" stroke-width="4" stroke-linecap="round"/>
  </g>

  <path d="M950 410C1010 390 1060 345 1110 360C1160 375 1210 320 1260 330C1310 340 1360 270 1420 250" stroke="#60A5FA" stroke-width="6" stroke-linecap="round"/>

  <rect x="880" y="438" width="620" height="5" rx="2.5" fill="url(#glow)"/>

  <text x="120" y="250" fill="#E5E7EB" font-family="Inter, Arial, sans-serif" font-size="120" font-weight="800" letter-spacing="-2">
    <tspan fill="#3B82F6">x</tspan>Tract
  </text>
  <text x="120" y="318" fill="#A5B4FC" font-family="Inter, Arial, sans-serif" font-size="34" font-weight="500">
    AI-Powered Stock Intelligence Platform
  </text>
  <text x="120" y="390" fill="#9CA3AF" font-family="Inter, Arial, sans-serif" font-size="24" font-weight="400">
    Real-time market data, actionable insights, and personalized AI guidance.
  </text>
</svg>
